<svg xmlns="http://www.w3.org/2000/svg" width="108.4" height="105.765" viewBox="0 0 108.4 105.765">
  <g id="グループ_58" data-name="グループ 58" transform="translate(715.569 -3228)">
    <g id="グループ_53" data-name="グループ 53" transform="translate(-715.569 3228)">
      <g id="楕円形_10" data-name="楕円形 10" transform="translate(29.018 15.109)" fill="none" stroke="red" stroke-width="3">
        <circle cx="25.182" cy="25.182" r="25.182" stroke="none"/>
        <circle cx="25.182" cy="25.182" r="23.682" fill="none"/>
      </g>
      <g id="グループ_51" data-name="グループ 51" transform="translate(0)">
        <g id="楕円形_9" data-name="楕円形 9" transform="translate(16.427 40.291)" fill="none" stroke="red" stroke-width="3">
          <circle cx="25.182" cy="25.182" r="25.182" stroke="none"/>
          <circle cx="25.182" cy="25.182" r="23.682" fill="none"/>
        </g>
        <g id="楕円形_11" data-name="楕円形 11" transform="translate(41.609 40.291)" fill="none" stroke="red" stroke-width="3">
          <circle cx="25.182" cy="25.182" r="25.182" stroke="none"/>
          <circle cx="25.182" cy="25.182" r="23.682" fill="none"/>
        </g>
        <g id="多角形_17" data-name="多角形 17" transform="translate(60.915 40.291) rotate(180)" fill="red">
          <path d="M 12.8402624130249 39.79147720336914 L 0.5902290940284729 39.79147720336914 L 6.715245723724365 3.04139518737793 L 12.8402624130249 39.79147720336914 Z" stroke="none"/>
          <path d="M 6.715245723724365 6.082733154296875 L 1.180452346801758 39.29147720336914 L 12.25003910064697 39.29147720336914 L 6.715245723724365 6.082733154296875 M 6.715245723724365 -3.814697265625e-06 L 13.430495262146 40.29147720336914 L -3.814697265625e-06 40.29147720336914 L 6.715245723724365 -3.814697265625e-06 Z" stroke="none" fill="red"/>
        </g>
        <g id="多角形_18" data-name="多角形 18" transform="translate(66.791 70.51) rotate(-60)" fill="red">
          <path d="M 12.8402624130249 39.79147720336914 L 0.5902290940284729 39.79147720336914 L 6.715245723724365 3.04139518737793 L 12.8402624130249 39.79147720336914 Z" stroke="none"/>
          <path d="M 6.715245723724365 6.082733154296875 L 1.180452346801758 39.29147720336914 L 12.25003910064697 39.29147720336914 L 6.715245723724365 6.082733154296875 M 6.715245723724365 -3.814697265625e-06 L 13.430495262146 40.29147720336914 L -3.814697265625e-06 40.29147720336914 L 6.715245723724365 -3.814697265625e-06 Z" stroke="none" fill="red"/>
        </g>
        <g id="多角形_19" data-name="多角形 19" transform="translate(34.893 58.879) rotate(60)" fill="red">
          <path d="M 12.8402624130249 39.79147720336914 L 0.5902290940284729 39.79147720336914 L 6.715245723724365 3.04139518737793 L 12.8402624130249 39.79147720336914 Z" stroke="none"/>
          <path d="M 6.715245723724365 6.082733154296875 L 1.180452346801758 39.29147720336914 L 12.25003910064697 39.29147720336914 L 6.715245723724365 6.082733154296875 M 6.715245723724365 -3.814697265625e-06 L 13.430495262146 40.29147720336914 L -3.814697265625e-06 40.29147720336914 L 6.715245723724365 -3.814697265625e-06 Z" stroke="none" fill="red"/>
        </g>
      </g>
    </g>
    <g id="楕円形_14" data-name="楕円形 14" transform="translate(-711.734 3233.036)" fill="none" stroke="red" stroke-width="3">
      <circle cx="50.364" cy="50.364" r="50.364" stroke="none"/>
      <circle cx="50.364" cy="50.364" r="48.864" fill="none"/>
    </g>
    <circle id="楕円形_15" data-name="楕円形 15" cx="2.518" cy="2.518" r="2.518" transform="translate(-663.888 3280.883)" fill="red"/>
    <circle id="楕円形_21" data-name="楕円形 21" cx="2.518" cy="2.518" r="2.518" transform="translate(-663.888 3280.883)" fill="red"/>
  </g>
</svg>
